PathFileType	4	(X/Y/Z)	C:\Users\WrightLab\Desktop\Jo\P1_boxCal2.trc
DataRate	CameraRate	NumFrames	NumMarkers	Units	OrigDataRate	OrigDataStartFrame	OrigNumFrames
100.00	100.00	       19	19	mm	100.00	413	       825
Frame#	Time	Headset_Front			Headset_Back			Headset_Left			Headset_Right			Left_Shoulder			Right_Shoulder			Sternum			C7			Left Elbow			Right Elbow			Left Wrist			Right Wrist			Left ASIS			Right ASIS			S2			Left Knee			Right Knee			Left Ankle			Right Ankle			
		X1	Y1	Z1	X2	Y2	Z2	X3	Y3	Z3	X4	Y4	Z4	X5	Y5	Z5	X6	Y6	Z6	X7	Y7	Z7	X8	Y8	Z8	X9	Y9	Z9	X10	Y10	Z10	X11	Y11	Z11	X12	Y12	Z12	X13	Y13	Z13	X14	Y14	Z14	X15	Y15	Z15	X16	Y16	Z16	X17	Y17	Z17	X18	Y18	Z18	X19	Y19	Z19	

413	4.120	-633.46130	1377.53369	631.63763	-728.69629	1529.83215	378.84442	-586.38293	1451.28430	442.74805	-767.00128	1420.51404	578.90918	-544.78943	1276.47876	336.44678	-874.59308	1276.44702	504.89023	-674.05524	1170.57239	543.81116	-754.79529	1286.99390	308.44305	-485.15036	959.67529	272.17072	-1004.26221	1021.85297	484.11221	-379.89029	787.21136	317.68066	-1077.80090	803.74292	552.74048	-768.60681	901.11725	596.24609	-581.78699	887.57861	521.78912	-779.81653	901.72571	269.68292	-860.75305	477.81656	580.42572	-555.16876	432.23730	405.89783	-859.42413	96.67268	594.57684	-660.88525	165.98412	173.99304	
414	4.130	-631.45422	1376.96594	634.06403	-726.37012	1529.85486	386.22430	-584.77838	1452.14136	448.89041	-764.73602	1420.99182	585.57458	-544.49493	1277.10510	341.33157	-871.95483	1277.48767	514.11804	-670.87610	1170.60107	550.27130	-754.79956	1287.78833	315.74957	-483.36789	960.59583	275.79340	-1002.18201	1023.06152	494.57211	-378.17953	789.11243	321.44830	-1074.71362	804.83014	564.84161	-766.72931	901.78461	603.79877	-580.88507	888.34680	528.70654	-779.30499	902.20508	278.60672	-860.89471	477.45551	587.45135	-546.58984	433.97629	421.14407	-858.86371	95.55504	593.63629	-657.36346	172.87947	185.49908	
415	4.140	-627.21405	1378.41785	644.29797	-724.88977	1530.66187	393.20935	-582.97540	1453.10352	455.50024	-762.59375	1422.17981	592.99823	-543.89270	1277.50110	346.24094	-868.68427	1278.28784	522.82562	-667.40442	1170.56335	556.17822	-754.16766	1288.27869	323.06985	-482.82968	960.72308	280.21030	-1000.41138	1024.61450	505.59042	-376.12497	789.33362	324.81940	-1071.41125	806.08508	576.85187	-764.47357	902.73694	611.42987	-577.97754	888.65192	534.27649	-779.64325	903.74829	286.18222	-862.85822	475.63608	593.22119	-537.86230	437.05872	433.76599	-857.77411	94.92233	593.14465	-652.89001	180.10545	197.68628	
416	4.150	-624.86133	1379.38354	650.89752	-723.37500	1531.35657	400.25580	-581.08954	1453.30164	462.70178	-759.96307	1422.42590	599.95959	-543.27203	1277.17651	351.11606	-865.72754	1279.11609	531.78864	-664.22516	1170.79883	561.89594	-753.63544	1289.11145	330.26974	-481.57092	961.18909	284.27472	-998.59320	1025.84668	516.35504	-374.59695	790.30872	328.71597	-1067.91968	806.78088	588.83771	-761.38324	902.90692	619.37860	-576.24139	889.18176	539.30890	-780.56543	905.01337	293.65463	-864.19885	473.59033	598.19202	-530.27179	439.66873	446.28201	-856.69208	95.94405	594.42499	-650.28430	186.54465	211.92667	
417	4.160	-622.21387	1379.52368	657.17590	-721.40454	1532.00916	406.95917	-578.77075	1454.00342	468.69547	-757.29749	1422.87524	606.79926	-542.29950	1276.93396	355.10764	-862.64240	1279.59106	540.26581	-662.07471	1171.47974	568.21741	-752.89233	1289.79578	337.35602	-480.46066	960.83392	289.03613	-996.52930	1026.53552	527.46387	-372.67862	790.57507	332.80017	-1064.92834	807.42151	601.37372	-757.66046	902.86896	626.01868	-573.60699	889.12457	544.20099	-781.64221	904.97748	301.91013	-865.75232	471.00323	604.76349	-523.27960	443.04181	458.53506	-855.66718	96.65369	594.38318	-646.09326	193.46960	224.97874	
418	4.170	-620.09479	1380.15369	663.83435	-719.32068	1532.63806	413.72986	-576.69373	1454.44397	475.10712	-754.59106	1423.36523	613.30273	-540.96484	1276.81592	359.48926	-859.45770	1279.96179	548.34387	-657.94165	1170.37561	572.94531	-752.24280	1290.37280	343.66510	-479.22501	960.29144	294.23715	-994.20190	1027.15442	538.60675	-371.21146	790.58081	336.65527	-1061.39917	808.12622	614.10040	-754.09949	902.54523	632.74963	-570.82275	888.35822	548.94287	-781.67383	904.87976	310.02661	-866.62347	468.61978	608.90381	-516.99884	446.51877	470.03461	-855.12018	97.68999	595.70532	-643.86395	199.98120	237.50510	
419	4.180	-616.08136	1380.09302	669.46863	-716.97894	1533.47546	420.39151	-574.66418	1455.48901	480.07336	-751.78473	1424.20911	620.09955	-540.08154	1276.45544	363.80576	-856.53906	1280.62793	556.56152	-654.66534	1170.64355	578.17163	-751.40833	1291.16846	351.07101	-478.32129	959.69086	298.11661	-991.72620	1027.88354	549.17780	-369.52393	790.93549	340.74829	-1057.42590	808.77972	626.29596	-750.47638	902.46503	639.81946	-568.08917	888.06616	554.21613	-782.92889	904.91858	317.11456	-866.31683	467.08203	610.64539	-509.32809	450.29776	481.54904	-854.56708	98.57129	597.11566	-642.23999	205.17363	250.00038	
420	4.190	-613.43250	1380.04602	673.08508	-714.63489	1534.38550	427.12811	-572.08972	1455.83069	486.17255	-748.12372	1424.22766	626.76758	-538.89209	1276.05432	368.84998	-853.31769	1281.13184	564.46460	-651.80139	1170.51917	583.87946	-750.27319	1291.90405	357.76282	-477.45557	959.64417	301.99844	-989.01642	1028.32251	559.92896	-368.35944	790.87219	345.00693	-1053.58386	809.43604	639.26245	-746.94617	902.56927	647.13489	-564.19550	887.98474	559.05212	-783.69910	905.33691	323.55545	-864.57928	465.72876	613.32739	-502.25131	453.51694	492.86981	-853.99390	99.39211	598.61780	-638.70813	208.62144	264.21692	
421	4.200	-610.06366	1380.59595	681.88324	-712.16309	1535.08362	433.73849	-569.30682	1455.63538	494.07715	-745.19983	1425.05542	633.54230	-537.91089	1275.70190	373.04114	-850.21613	1281.75354	572.09277	-648.26910	1170.61938	589.05280	-749.13263	1292.23315	364.04367	-476.51489	959.78339	307.12195	-986.01697	1029.00122	570.64886	-367.29544	790.93982	349.24850	-1049.08264	810.11328	651.61639	-743.25397	902.38690	653.43060	-560.80774	887.98676	563.44739	-783.59460	905.60828	330.34192	-861.49725	464.75082	616.45056	-496.27377	456.54190	503.53207	-853.59473	99.30709	598.11224	-634.48413	210.96936	277.95224	
422	4.210	-606.17999	1380.75977	687.31567	-709.30219	1535.84521	440.14865	-566.30634	1456.09692	498.40988	-741.94086	1425.67920	639.73047	-536.57892	1275.97144	377.33884	-847.46808	1282.69482	579.78888	-644.79779	1171.02344	594.64655	-748.49738	1293.46338	370.59137	-477.17963	959.01605	311.50833	-982.56458	1029.61133	580.38751	-366.48346	791.19464	353.27289	-1044.61499	811.11639	664.22070	-738.91571	901.60358	659.22357	-557.80286	887.32257	568.09869	-784.21057	905.99396	336.54404	-858.68164	464.51935	620.53497	-489.89709	460.63977	512.82697	-853.01190	98.26172	597.26764	-628.54578	211.58669	293.42590	
423	4.220	-603.40100	1381.52856	693.37488	-706.51837	1536.54883	446.72507	-563.74396	1456.59631	503.74292	-738.84338	1426.33386	646.23810	-535.89850	1276.63831	381.89380	-844.35675	1283.45410	586.88141	-642.15594	1171.46912	600.48260	-747.06989	1294.29944	377.29929	-475.77267	959.14551	316.17798	-978.89966	1030.23901	590.36078	-366.13107	791.43823	356.35114	-1038.66125	811.80499	675.79486	-735.08978	902.05469	665.04358	-554.02057	887.74915	572.01599	-784.24573	906.59375	342.77850	-855.88617	463.82681	624.90460	-483.60532	464.17767	522.95618	-852.53308	97.96937	596.85101	-621.73547	211.37035	309.09229	
424	4.230	-599.86096	1381.57605	699.32550	-704.18958	1538.07056	452.62820				-734.84338	1426.82446	652.54645	-534.32086	1276.69800	386.70844	-841.36609	1284.37109	594.49377	-639.76276	1172.11438	606.22284	-745.46967	1294.92834	383.94263	-476.80884	959.29016	322.27426	-975.05164	1030.54016	599.56567	-365.79309	791.36987	360.86676	-1033.02515	812.91095	687.25952	-730.92303	901.86218	670.32208	-549.77545	889.07684	576.84460	-783.61829	906.50623	348.67981	-852.76758	462.84903	628.83508	-478.52731	468.26093	530.87537	-851.31561	97.23706	595.88678	-613.75360	207.94130	325.20932	
425	4.240	-595.46777	1381.35254	704.91705	-700.47369	1537.98438	459.20999	-557.24799	1457.30151	514.56659	-731.45020	1427.28735	658.96625	-532.58020	1277.45178	391.60208	-838.16235	1285.12842	601.57196	-635.22498	1172.13354	611.29791	-744.33215	1296.07520	390.62906	-476.06241	959.58618	327.88004	-971.47864	1031.39429	608.86987	-366.39478	791.60419	365.01379	-1027.23083	813.72083	698.29175	-726.84918	902.33679	675.76514	-546.99384	889.39996	581.95074	-783.20697	907.23804	354.80438	-849.90851	462.08600	633.13239	-472.79340	472.50537	538.12225	-850.09119	97.86537	597.59473	-606.49725	203.97018	340.49548	
426	4.250	-592.59265	1382.39624	711.18713	-698.59167	1540.49255	464.58539	-554.77570	1456.74036	514.93494	-727.47308	1428.15295	665.14130	-531.01465	1278.07678	395.96951	-834.65771	1286.11829	608.78455	-632.91394	1173.46375	617.13135	-742.58319	1296.64124	397.23270	-476.18811	960.04858	331.70416	-967.54462	1032.20203	617.97089	-366.38654	791.83527	368.91052	-1020.76617	813.96356	709.09967	-723.51398	903.53363	681.54120	-543.78149	892.03497	586.50763	-782.50702	907.80475	360.76572	-847.94995	462.09741	637.38452	-467.55722	476.11987	546.53046	-849.18402	99.00015	600.05151	-599.45819	198.76662	356.99380	
427	4.260	-587.37421	1382.51990	716.51477	-694.92505	1540.26392	471.09531	-551.97766	1457.14880	520.48932	-723.37134	1428.90430	671.48291	-529.46295	1279.10559	400.86511	-831.64984	1287.06226	615.89240	-628.93597	1173.17761	620.98535	-740.42487	1297.65527	403.82449	-476.93961	960.56256	337.01428	-962.93182	1032.54675	626.20886	-366.91028	791.68854	372.70697	-1014.09265	814.41974	719.10608	-720.09796	904.95026	687.28546	-540.93829	893.01172	590.50763	-781.97449	908.99310	366.43686	-844.75220	461.37894	641.26868	-462.20395	479.72934	553.53503	-848.50623	99.86667	601.87909	-591.50555	193.15828	373.71130	
428	4.270	-584.07068	1383.46790	722.67896	-691.60559	1540.45825	477.03693	-548.07782	1458.27576	525.64117	-719.96204	1430.17542	678.04688	-527.28845	1279.69775	406.19604	-827.66962	1286.55774	622.37592	-626.61438	1175.19788	629.11176	-738.67432	1298.28540	410.17798	-477.46606	961.24323	343.85345	-958.47003	1033.15771	635.10352	-367.29425	791.70862	376.54025	-1007.42139	814.84436	729.31189	-716.46497	905.74701	693.04181	-538.10443	894.41669	594.90997	-779.80286	909.33820	371.95599	-841.23419	460.86615	644.40887	-457.63925	483.44211	558.66772	-848.14978	100.27290	602.86206	-583.57550	187.59193	391.12662	
429	4.280	-579.69910	1384.07739	728.44220	-687.93231	1540.34363	483.61609	-545.02155	1458.40710	531.59564	-716.02649	1431.06665	684.30389	-525.44775	1280.64185	411.23590	-824.64105	1288.98230	629.74463	-623.32269	1175.68469	634.01422	-736.26947	1298.92175	416.92639	-476.85419	961.25830	346.57742	-952.47699	1032.47961	643.50287	-368.23859	791.30322	380.39154	-1000.40765	814.79669	739.10608	-712.40857	906.28430	698.08655	-534.66254	895.50952	599.24542	-777.41840	909.69012	377.91653	-837.84045	460.65720	648.06787	-452.37393	487.12247	565.23358	-848.02325	100.01553	603.52399	-574.68060	181.44914	408.32626	
430	4.290	-575.74609	1385.07935	734.50769	-684.72815	1540.59155	489.51398	-541.73474	1458.30347	537.90430	-711.65082	1431.77380	690.18256	-523.30865	1281.53259	416.10687	-821.08069	1289.67151	636.87598	-619.39099	1175.93665	639.25037	-734.34546	1300.01733	423.37036	-476.41107	962.64099	351.74628	-948.74854	1033.33545	652.21667	-369.03464	790.87708	384.05066	-993.41412	814.86102	748.73810	-708.58759	907.21863	703.47595	-531.58929	896.94305	605.20624	-774.97870	910.43518	384.34613	-834.38940	459.82068	651.33801	-447.97101	489.94144	570.97198	-847.87616	100.15942	603.94019	-564.28473	175.94048	425.20032	
431	4.300	-570.84741	1385.43933	739.93274	-681.54999	1541.00439	495.37341	-537.94250	1458.51697	543.16998	-708.21875	1432.35730	696.89606	-520.65399	1281.90979	421.99240	-817.28589	1290.47107	643.46521	-616.23297	1177.33875	645.03314	-732.11194	1300.63550	429.52725	-476.31973	962.53375	357.60242	-944.18304	1033.58899	660.32739	-369.94574	790.18402	387.51508	-986.14508	815.00500	758.28687	-705.12732	907.97424	709.23187	-528.63501	897.52759	610.09918	-772.87939	910.71381	389.46307	-829.86957	459.44611	653.95319	-443.86649	492.75528	576.68976	-847.51776	100.02309	603.26117	-553.55981	169.47430	442.11511	
